# Blender 3.4.1
# www.blender.org
mtllib open shelf.mtl
o small_shelf
v 5.285172 0.157102 1.000000
v 5.285172 4.361630 1.000000
v 5.069969 0.048903 -1.000000
v 5.069969 4.469830 -1.000000
v 13.647755 0.157102 1.000000
v 13.647755 4.361630 1.000000
v 13.862957 0.048903 -1.000000
v 13.862957 4.469830 -1.000000
v 5.069969 0.048903 1.000000
v 5.069969 4.469830 1.000000
v 13.862957 4.469830 1.000000
v 13.862957 0.048903 1.000000
v 5.285172 0.157102 -0.769170
v 5.285172 4.361630 -0.769170
v 13.647755 4.361630 -0.769170
v 13.647755 0.157102 -0.769170
v 5.263915 2.136462 0.948112
v 5.263915 2.402468 0.948112
v 5.263915 2.136462 -0.752142
v 5.263915 2.402468 -0.752142
v 13.636574 2.136462 0.948112
v 13.636574 2.402468 0.948112
v 13.636574 2.136462 -0.752142
v 13.636574 2.402468 -0.752142
vn -1.0000 -0.0000 -0.0000
vn -0.0000 -0.0000 -1.0000
vn 1.0000 -0.0000 -0.0000
vn -0.0000 1.0000 -0.0000
vn -0.0000 -1.0000 -0.0000
vn -0.0000 -0.0000 1.0000
vt 0.381119 0.993881
vt 0.618881 0.993881
vt 0.375000 0.250000
vt 0.125000 0.500000
vt 0.625000 0.250000
vt 0.875000 0.500000
vt 0.381119 0.756119
vt 0.618881 0.756119
vt 0.375000 0.500000
vt 0.625000 0.500000
vt 0.375000 0.000000
vt 0.125000 0.750000
vt 0.375000 1.000000
vt 0.625000 0.000000
vt 0.875000 0.750000
vt 0.625000 1.000000
vt 0.625000 0.750000
vt 0.375000 0.750000
vt 0.381119 0.993881
vt 0.618881 0.993881
vt 0.618881 0.756119
vt 0.381119 0.756119
vt 0.375000 0.000000
vt 0.375000 1.000000
vt 0.125000 0.750000
vt 0.625000 0.000000
vt 0.625000 1.000000
vt 0.875000 0.750000
vt 0.375000 0.250000
vt 0.125000 0.500000
vt 0.625000 0.250000
vt 0.875000 0.500000
vt 0.375000 0.750000
vt 0.625000 0.750000
vt 0.375000 0.500000
vt 0.625000 0.500000
s 0
f 9/11/1 10/14/1 4/5/1 3/3/1
f 3/3/2 4/5/2 8/10/2 7/9/2
f 7/9/3 8/10/3 11/17/3 12/18/3
f 1/1/4 5/7/4 16/22/4 13/19/4
f 3/4/5 7/9/5 12/18/5 9/12/5
f 8/10/4 4/6/4 10/15/4 11/17/4
f 1/1/6 2/2/6 10/16/6 9/13/6
f 6/8/6 5/7/6 12/18/6 11/17/6
f 5/7/6 1/1/6 9/13/6 12/18/6
f 2/2/6 6/8/6 11/17/6 10/16/6
f 16/22/6 15/21/6 14/20/6 13/19/6
f 2/2/3 1/1/3 13/19/3 14/20/3
f 6/8/5 2/2/5 14/20/5 15/21/5
f 5/7/1 6/8/1 15/21/1 16/22/1
f 17/23/1 18/26/1 20/31/1 19/29/1
f 19/29/2 20/31/2 24/36/2 23/35/2
f 23/35/3 24/36/3 22/34/3 21/33/3
f 21/33/6 22/34/6 18/27/6 17/24/6
f 19/30/5 23/35/5 21/33/5 17/25/5
f 24/36/4 20/32/4 18/28/4 22/34/4
