# Blender 3.4.1
# www.blender.org
mtllib shelf.mtl
o plateleira
v 3.299850 7.706729 -1.000000
v 3.299850 0.053257 -1.000000
v 3.095023 7.469198 1.000000
v 3.095023 0.290788 1.000000
v -3.299850 7.706729 -1.000000
v -3.299850 0.053257 -1.000000
v -3.095023 7.469198 1.000000
v -3.095023 0.290788 1.000000
v -3.299850 0.053257 1.000000
v -3.299850 7.706729 1.000000
v 3.299850 7.706729 1.000000
v 3.299850 0.053257 1.000000
v -3.095023 0.290788 -0.626548
v -3.095023 7.469198 -0.626548
v 3.095023 7.469198 -0.626548
v 3.095023 0.290788 -0.626548
v 3.118351 1.811098 0.978109
v 3.118351 1.989399 0.978109
v 3.118351 1.811098 -0.637884
v 3.118351 1.989399 -0.637884
v -3.118351 1.811098 0.978109
v -3.118351 1.989399 0.978109
v -3.118351 1.811098 -0.637884
v -3.118351 1.989399 -0.637884
v 3.118351 5.519551 0.978109
v 3.118351 5.697853 0.978109
v 3.118351 5.519551 -0.637884
v 3.118351 5.697853 -0.637884
v -3.118351 5.519551 0.978109
v -3.118351 5.697853 0.978109
v -3.118351 5.519551 -0.637884
v -3.118351 5.697853 -0.637884
v 3.118351 3.784403 0.978109
v 3.118351 3.962705 0.978109
v 3.118351 3.784403 -0.637884
v 3.118351 3.962705 -0.637884
v -3.118351 3.784403 0.978109
v -3.118351 3.962705 0.978109
v -3.118351 3.784403 -0.637884
v -3.118351 3.962705 -0.637884
vn -0.0000 1.0000 -0.0000
vn -0.0000 -1.0000 -0.0000
vn -1.0000 -0.0000 -0.0000
vn 1.0000 -0.0000 -0.0000
vn -0.0000 -0.0000 -1.0000
vn -0.0000 -0.0000 1.0000
vt 0.625000 0.500000
vt 0.375000 0.500000
vt 0.617241 0.757759
vt 0.382759 0.757759
vt 0.875000 0.500000
vt 0.625000 0.250000
vt 0.125000 0.500000
vt 0.375000 0.250000
vt 0.617241 0.992241
vt 0.382759 0.992241
vt 0.375000 0.000000
vt 0.125000 0.750000
vt 0.375000 1.000000
vt 0.875000 0.750000
vt 0.625000 0.000000
vt 0.625000 1.000000
vt 0.625000 0.750000
vt 0.375000 0.750000
vt 0.382759 0.992241
vt 0.617241 0.992241
vt 0.617241 0.757759
vt 0.382759 0.757759
vt 0.375000 0.000000
vt 0.375000 1.000000
vt 0.125000 0.750000
vt 0.625000 0.000000
vt 0.625000 1.000000
vt 0.875000 0.750000
vt 0.375000 0.250000
vt 0.125000 0.500000
vt 0.625000 0.250000
vt 0.875000 0.500000
vt 0.375000 0.750000
vt 0.625000 0.750000
vt 0.375000 0.500000
vt 0.625000 0.500000
vt 0.375000 0.000000
vt 0.375000 1.000000
vt 0.125000 0.750000
vt 0.625000 0.000000
vt 0.625000 1.000000
vt 0.875000 0.750000
vt 0.375000 0.250000
vt 0.125000 0.500000
vt 0.625000 0.250000
vt 0.875000 0.500000
vt 0.375000 0.750000
vt 0.625000 0.750000
vt 0.375000 0.500000
vt 0.625000 0.500000
vt 0.375000 0.000000
vt 0.375000 1.000000
vt 0.125000 0.750000
vt 0.625000 0.000000
vt 0.625000 1.000000
vt 0.875000 0.750000
vt 0.375000 0.250000
vt 0.125000 0.500000
vt 0.625000 0.250000
vt 0.875000 0.500000
vt 0.375000 0.750000
vt 0.625000 0.750000
vt 0.375000 0.500000
vt 0.625000 0.500000
s 0
usemtl Material
f 1/1/1 5/5/1 10/14/1 11/17/1
f 3/3/2 7/9/2 14/20/2 15/21/2
f 9/11/3 10/15/3 5/6/3 6/8/3
f 6/7/2 2/2/2 12/18/2 9/12/2
f 2/2/4 1/1/4 11/17/4 12/18/4
f 6/8/5 5/6/5 1/1/5 2/2/5
f 8/10/6 7/9/6 10/16/6 9/13/6
f 3/3/6 4/4/6 12/18/6 11/17/6
f 7/9/6 3/3/6 11/17/6 10/16/6
f 4/4/6 8/10/6 9/13/6 12/18/6
f 16/22/6 15/21/6 14/20/6 13/19/6
f 7/9/4 8/10/4 13/19/4 14/20/4
f 8/10/1 4/4/1 16/22/1 13/19/1
f 4/4/3 3/3/3 15/21/3 16/22/3
f 17/23/3 18/26/3 20/31/3 19/29/3
f 19/29/6 20/31/6 24/36/6 23/35/6
f 23/35/4 24/36/4 22/34/4 21/33/4
f 21/33/5 22/34/5 18/27/5 17/24/5
f 19/30/1 23/35/1 21/33/1 17/25/1
f 24/36/2 20/32/2 18/28/2 22/34/2
f 25/37/3 26/40/3 28/45/3 27/43/3
f 27/43/6 28/45/6 32/50/6 31/49/6
f 31/49/4 32/50/4 30/48/4 29/47/4
f 29/47/5 30/48/5 26/41/5 25/38/5
f 27/44/1 31/49/1 29/47/1 25/39/1
f 32/50/2 28/46/2 26/42/2 30/48/2
f 33/51/3 34/54/3 36/59/3 35/57/3
f 35/57/6 36/59/6 40/64/6 39/63/6
f 39/63/4 40/64/4 38/62/4 37/61/4
f 37/61/5 38/62/5 34/55/5 33/52/5
f 35/58/1 39/63/1 37/61/1 33/53/1
f 40/64/2 36/60/2 34/56/2 38/62/2
